<svg width="20" height="20" viewBox="0 0 20 20" fill="none" xmlns="http://www.w3.org/2000/svg">
<path d="M18.0946 9.41575C18.0978 10.6256 17.8151 11.8191 17.2696 12.8991C16.6229 14.1932 15.6286 15.2817 14.3981 16.0426C13.1677 16.8035 11.7497 17.2069 10.303 17.2074C9.09307 17.2106 7.89956 16.9279 6.81962 16.3824L1.59462 18.1241L3.33629 12.8991C2.79081 11.8191 2.50813 10.6256 2.51129 9.41575C2.51185 7.96902 2.91518 6.55103 3.67611 5.32058C4.43704 4.09014 5.52552 3.09585 6.81962 2.44908C7.89956 1.9036 9.09307 1.62093 10.303 1.62408H10.7613C12.6719 1.72949 14.4766 2.53594 15.8297 3.88903C17.1828 5.24212 17.9892 7.04676 18.0946 8.95741V9.41575Z" stroke="#7F7F7F" stroke-width="2" stroke-linecap="round" stroke-linejoin="round"/>
</svg>
