<svg fill="currentColor" viewBox="0 0 20 20" width="1em" height="1em" class="x1lliihq x1k90msu x2h7rmj x1qfuztq xcza8v6 x1qx5ct2 xw4jnvo"><g fill-rule="evenodd" transform="translate(-446 -350)"><path d="M457.25 361H455v2.25a1 1 0 0 1-2 0V361h-2.25a1 1 0 0 1 0-2H453v-2.25a1 1 0 0 1 2 0V359h2.25a1 1 0 0 1 0 2m8.241-5.889a.962.962 0 0 0-.998.063L462 356.938v-1.188a2.754 2.754 0 0 0-2.75-2.75h-10.5a2.754 2.754 0 0 0-2.75 2.75v8.5a2.754 2.754 0 0 0 2.75 2.75h10.5a2.754 2.754 0 0 0 2.75-2.75v-1.188l2.503 1.77a.953.953 0 0 0 .988.057.95.95 0 0 0 .509-.841v-8.096a.95.95 0 0 0-.509-.841"></path></g></svg>