<svg width="25" height="22" viewBox="0 0 25 22" fill="none" xmlns="http://www.w3.org/2000/svg">
<path d="M23.7348 10.2256L14.1347 0.625546C13.9669 0.457721 13.7531 0.343426 13.5204 0.297115C13.2876 0.250805 13.0463 0.274557 12.8271 0.365371C12.6078 0.456184 12.4204 0.609978 12.2886 0.807304C12.1567 1.00463 12.0863 1.23662 12.0863 1.47395V5.72786C8.80829 6.03128 5.76143 7.547 3.54199 9.97842C1.32255 12.4098 0.0902739 15.5819 0.0863037 18.874V20.674C0.0862846 20.9232 0.163855 21.1662 0.308247 21.3694C0.452639 21.5725 0.656688 21.7256 0.892067 21.8075C1.12745 21.8894 1.38248 21.8959 1.62175 21.8263C1.86103 21.7566 2.07268 21.6142 2.22733 21.4187C3.4029 20.0207 4.84531 18.8709 6.47028 18.0366C8.09525 17.2022 9.8702 16.7001 11.6914 16.5595C11.7512 16.5519 11.9012 16.5402 12.0863 16.5285V20.674C12.0863 20.9113 12.1567 21.1433 12.2886 21.3406C12.4204 21.538 12.6078 21.6918 12.8271 21.7826C13.0463 21.8734 13.2876 21.8971 13.5204 21.8508C13.7531 21.8045 13.9669 21.6902 14.1347 21.5224L23.7348 11.9224C23.8462 11.811 23.9346 11.6787 23.9949 11.5331C24.0553 11.3876 24.0863 11.2315 24.0863 11.074C24.0863 10.9164 24.0553 10.7604 23.9949 10.6148C23.9346 10.4692 23.8462 10.337 23.7348 10.2256ZM14.4863 17.7771V15.274C14.4864 15.1164 14.4554 14.9603 14.3951 14.8147C14.3348 14.6691 14.2464 14.5368 14.135 14.4254C14.0235 14.3139 13.8912 14.2255 13.7456 14.1652C13.6 14.105 13.4439 14.0739 13.2863 14.074C12.9805 14.074 11.7313 14.1332 11.4125 14.176C8.17801 14.4739 5.09915 15.7027 2.54842 17.7138C2.83778 15.067 4.09333 12.62 6.07464 10.8413C8.05595 9.06255 10.6238 8.07723 13.2863 8.07397C13.4439 8.07401 13.6 8.043 13.7456 7.98271C13.8912 7.92241 14.0235 7.83402 14.135 7.72258C14.2464 7.61115 14.3348 7.47884 14.3951 7.33323C14.4554 7.18762 14.4864 7.03156 14.4863 6.87396V4.37083L21.1895 11.074L14.4863 17.7771Z" fill="black" fill-opacity="0.43"/>
<path d="M23.7348 10.2256L14.1347 0.625546C13.9669 0.457721 13.7531 0.343426 13.5204 0.297115C13.2876 0.250805 13.0463 0.274557 12.8271 0.365371C12.6078 0.456184 12.4204 0.609978 12.2886 0.807304C12.1567 1.00463 12.0863 1.23662 12.0863 1.47395V5.72786C8.80829 6.03128 5.76143 7.547 3.54199 9.97842C1.32255 12.4098 0.0902739 15.5819 0.0863037 18.874V20.674C0.0862846 20.9232 0.163855 21.1662 0.308247 21.3694C0.452639 21.5725 0.656688 21.7256 0.892067 21.8075C1.12745 21.8894 1.38248 21.8959 1.62175 21.8263C1.86103 21.7566 2.07268 21.6142 2.22733 21.4187C3.4029 20.0207 4.84531 18.8709 6.47028 18.0366C8.09525 17.2022 9.8702 16.7001 11.6914 16.5595C11.7512 16.5519 11.9012 16.5402 12.0863 16.5285V20.674C12.0863 20.9113 12.1567 21.1433 12.2886 21.3406C12.4204 21.538 12.6078 21.6918 12.8271 21.7826C13.0463 21.8734 13.2876 21.8971 13.5204 21.8508C13.7531 21.8045 13.9669 21.6902 14.1347 21.5224L23.7348 11.9224C23.8462 11.811 23.9346 11.6787 23.9949 11.5331C24.0553 11.3876 24.0863 11.2315 24.0863 11.074C24.0863 10.9164 24.0553 10.7604 23.9949 10.6148C23.9346 10.4692 23.8462 10.337 23.7348 10.2256ZM14.4863 17.7771V15.274C14.4864 15.1164 14.4554 14.9603 14.3951 14.8147C14.3348 14.6691 14.2464 14.5368 14.135 14.4254C14.0235 14.3139 13.8912 14.2255 13.7456 14.1652C13.6 14.105 13.4439 14.0739 13.2863 14.074C12.9805 14.074 11.7313 14.1332 11.4125 14.176C8.17801 14.4739 5.09915 15.7027 2.54842 17.7138C2.83778 15.067 4.09333 12.62 6.07464 10.8413C8.05595 9.06255 10.6238 8.07723 13.2863 8.07397C13.4439 8.07401 13.6 8.043 13.7456 7.98271C13.8912 7.92241 14.0235 7.83402 14.135 7.72258C14.2464 7.61115 14.3348 7.47884 14.3951 7.33323C14.4554 7.18762 14.4864 7.03156 14.4863 6.87396V4.37083L21.1895 11.074L14.4863 17.7771Z" stroke="black"/>
</svg>
