<svg fill="currentColor" viewBox="0 0 20 20" width="1em" height="1em" class="x1lliihq x1k90msu x2h7rmj x1qfuztq x1qq9wsj x1qx5ct2 xw4jnvo"><g fill-rule="evenodd" transform="translate(-446 -350)"><path d="M457 368.832a.5.5 0 0 0 .883.323l1.12-1.332a.876.876 0 0 1 .679-.323h3.522a2.793 2.793 0 0 0 2.796-2.784v-10.931a2.793 2.793 0 0 0-2.796-2.785h-3.454a2.75 2.75 0 0 0-2.75 2.75v15.082zm-1.5 0a.5.5 0 0 1-.883.323l-1.12-1.332a.876.876 0 0 0-.679-.323h-3.522a2.793 2.793 0 0 1-2.796-2.784v-10.931a2.793 2.793 0 0 1 2.796-2.785h3.454a2.75 2.75 0 0 1 2.75 2.75v15.082z"></path></g></svg>