<svg width="23" height="23" viewBox="0 0 23 23" fill="none" xmlns="http://www.w3.org/2000/svg">
<path d="M6.96419 10.8741L10.9642 1.87408C11.7598 1.87408 12.5229 2.19016 13.0855 2.75276C13.6481 3.31537 13.9642 4.07844 13.9642 4.87408V8.87408H19.6242C19.9141 8.8708 20.2013 8.93059 20.4658 9.0493C20.7303 9.16802 20.9658 9.34282 21.156 9.5616C21.3463 9.78038 21.4867 10.0379 21.5675 10.3163C21.6484 10.5948 21.6677 10.8874 21.6242 11.1741L20.2442 20.1741C20.1719 20.651 19.9296 21.0857 19.5621 21.3981C19.1946 21.7105 18.7265 21.8795 18.2442 21.8741H6.96419M6.96419 10.8741V21.8741M6.96419 10.8741H3.96419C3.43375 10.8741 2.92505 11.0848 2.54997 11.4599C2.1749 11.8349 1.96419 12.3437 1.96419 12.8741V19.8741C1.96419 20.4045 2.1749 20.9132 2.54997 21.2883C2.92505 21.6634 3.43375 21.8741 3.96419 21.8741H6.96419" stroke="#8F8F8F" stroke-width="2" stroke-linecap="round" stroke-linejoin="round"/>
</svg>
